<svg xmlns="http://www.w3.org/2000/svg" viewBox="0 0 64 64"><title>Budget</title><g id="Budget"><path d="M21,60H8a4,4,0,0,1-4-4V34a4,4,0,0,1,4-4H21a4,4,0,0,1,4,4V56A4,4,0,0,1,21,60ZM8,32a2,2,0,0,0-2,2V56a2,2,0,0,0,2,2H21a2,2,0,0,0,2-2V34a2,2,0,0,0-2-2Z"/><path d="M25,60H21a1,1,0,0,1,0-2,2,2,0,0,0,2-2V34a2,2,0,0,0-2-2,1,1,0,0,1,0-2h4a4,4,0,0,1,4,4V56A4,4,0,0,1,25,60Zm-.54-2H25a2,2,0,0,0,2-2V34a2,2,0,0,0-2-2h-.54A4,4,0,0,1,25,34V56A4,4,0,0,1,24.46,58Z"/><path d="M10,44H9a1,1,0,0,1,0-2h1a1,1,0,0,1,0,2Z"/><path d="M15,44H14a1,1,0,0,1,0-2h1a1,1,0,0,1,0,2Z"/><path d="M20,44H19a1,1,0,0,1,0-2h1a1,1,0,0,1,0,2Z"/><path d="M10,48H9a1,1,0,0,1,0-2h1a1,1,0,0,1,0,2Z"/><path d="M15,48H14a1,1,0,0,1,0-2h1a1,1,0,0,1,0,2Z"/><path d="M20,48H19a1,1,0,0,1,0-2h1a1,1,0,0,1,0,2Z"/><path d="M10,52H9a1,1,0,0,1,0-2h1a1,1,0,0,1,0,2Z"/><path d="M15,52H14a1,1,0,0,1,0-2h1a1,1,0,0,1,0,2Z"/><path d="M20,56a1,1,0,0,1-1-1V51a1,1,0,0,1,2,0v4A1,1,0,0,1,20,56Z"/><path d="M10,56H9a1,1,0,0,1,0-2h1a1,1,0,0,1,0,2Z"/><path d="M15,56H14a1,1,0,0,1,0-2h1a1,1,0,0,1,0,2Z"/><path d="M20,40H9a1,1,0,0,1-1-1V35a1,1,0,0,1,1-1H20a1,1,0,0,1,1,1v4A1,1,0,0,1,20,40ZM10,38h9V36H10Z"/><path d="M47,60H36.81a12.73,12.73,0,0,1-9.06-3.75c-.17-.18-.34-.35-.5-.54a1,1,0,0,1-.25-.66V39.31a1,1,0,0,1,.22-.63l10-12.31A1,1,0,0,1,38,26h8a1,1,0,0,1,.78.37L57.14,39.12a12.31,12.31,0,0,1,2.12,3.79,12.78,12.78,0,0,1-3.6,13.88A1,1,0,0,1,54,56v0H48v3A1,1,0,0,1,47,60ZM29,54.66a1.37,1.37,0,0,0,.17.17A10.69,10.69,0,0,0,36.81,58H46V55a1,1,0,0,1,1-1h8a1,1,0,0,1,.48.12,10.8,10.8,0,0,0,1.9-10.54,10.61,10.61,0,0,0-1.79-3.2L45.52,28h-7L29,39.67Z"/><path d="M55,60H47a1,1,0,0,1-1-1V55a1,1,0,0,1,1-1h8a1,1,0,0,1,1,1v4A1,1,0,0,1,55,60Zm-7-2h6V56H48Z"/><path d="M55,56H47a1,1,0,0,1-1-1V51a1,1,0,0,1,1-1h8a1,1,0,0,1,1,1v4A1,1,0,0,1,55,56Zm-7-2h6V52H48Z"/><path d="M55,52H47a1,1,0,0,1-1-1V47a1,1,0,0,1,1-1h8a1,1,0,0,1,1,1v4A1,1,0,0,1,55,52Zm-7-2h6V48H48Z"/><path d="M40,45H38a1,1,0,0,1,0-2h2a1,1,0,0,0,0-2,3,3,0,0,1,0-6h2a1,1,0,0,1,0,2H40a1,1,0,0,0,0,2,3,3,0,0,1,0,6Z"/><path d="M42.5,60A5.5,5.5,0,1,1,48,54.5,5.51,5.51,0,0,1,42.5,60Zm0-9A3.5,3.5,0,1,0,46,54.5,3.5,3.5,0,0,0,42.5,51Z"/><path d="M40,37a1,1,0,0,1-1-1V34a1,1,0,0,1,2,0v2A1,1,0,0,1,40,37Z"/><path d="M40,47a1,1,0,0,1-1-1V44a1,1,0,0,1,2,0v2A1,1,0,0,1,40,47Z"/><path d="M47,28H37a1,1,0,0,1,0-2H47a1,1,0,0,1,0,2Z"/><path d="M47,28a1,1,0,0,1-.71-.29,1,1,0,0,1,0-1.42l3-3a1,1,0,0,1,1.42,1.42l-3,3A1,1,0,0,1,47,28Z"/><path d="M51,29a1,1,0,0,1-.24,0l-4-1A1,1,0,1,1,47.24,26l4,1A1,1,0,0,1,51,29Z"/><path d="M46,28H38a1,1,0,0,1-1-.68l-3-9A1.19,1.19,0,0,1,34,18v-.5a1,1,0,0,1,1-1,4.08,4.08,0,0,1,2.25.63,2.3,2.3,0,0,0,2.5,0A4,4,0,0,1,42,16.5a4.31,4.31,0,0,1,1.33.2,5.09,5.09,0,0,1,.93.43,2.11,2.11,0,0,0,1.25.37,2.09,2.09,0,0,0,1.25-.37A4.08,4.08,0,0,1,49,16.5a1,1,0,0,1,1,1V18a1.19,1.19,0,0,1,0,.32l-3,9A1,1,0,0,1,46,28Zm-7.28-2h6.56l2.36-7.07a4,4,0,0,1-2.14.57,4.14,4.14,0,0,1-2.24-.62,3.25,3.25,0,0,0-.56-.28,2.26,2.26,0,0,0-.71-.1,2.08,2.08,0,0,0-1.24.37,4.08,4.08,0,0,1-2.25.63,4,4,0,0,1-2.14-.57Z"/><path d="M28,40.31a.92.92,0,0,1-.33-.06,1,1,0,0,1-.67-.94V34a2,2,0,0,0-2-2H8a2,2,0,0,0-2,2,1,1,0,0,1-2,0V10a6,6,0,0,1,6-6H48a1,1,0,0,1,0,2,4,4,0,0,0-4,4v7.65a1,1,0,0,1-.42.81,1,1,0,0,1-.9.14,2,2,0,0,0-.69-.1,2.08,2.08,0,0,0-1.24.37,4.08,4.08,0,0,1-2.25.63,4,4,0,0,1-2.14-.57L39,26.68a1,1,0,0,1-.17.95l-10,12.31A1,1,0,0,1,28,40.31ZM8,30H25a4,4,0,0,1,4,4v2.49l7.88-9.69-2.83-8.48A1.19,1.19,0,0,1,34,18v-.5a1,1,0,0,1,1-1,4.08,4.08,0,0,1,2.25.63,2.3,2.3,0,0,0,2.5,0A4,4,0,0,1,42,16.5h0V10a6,6,0,0,1,1.53-4H10a4,4,0,0,0-4,4V30.54A4,4,0,0,1,8,30Z"/><path d="M53,13H43a1,1,0,0,1-1-1V10a6,6,0,0,1,12,0v2A1,1,0,0,1,53,13Zm-9-2h8V10a4,4,0,0,0-8,0Z"/><path d="M12,20H10a1,1,0,0,1,0-2h2a1,1,0,0,0,0-2,3,3,0,0,1,0-6h2a1,1,0,0,1,0,2H12a1,1,0,0,0,0,2,3,3,0,0,1,0,6Z"/><path d="M12,12a1,1,0,0,1-1-1V9a1,1,0,0,1,2,0v2A1,1,0,0,1,12,12Z"/><path d="M12,22a1,1,0,0,1-1-1V19a1,1,0,0,1,2,0v2A1,1,0,0,1,12,22Z"/><path d="M38,12H21a1,1,0,0,1,0-2H38a1,1,0,0,1,0,2Z"/><path d="M29,17H21a1,1,0,0,1,0-2h8a1,1,0,0,1,0,2Z"/><path d="M29,22H21a1,1,0,0,1,0-2h8a1,1,0,0,1,0,2Z"/></g></svg>