<?xml version="1.0" standalone="no"?>
<!DOCTYPE svg PUBLIC "-//W3C//DTD SVG 20010904//EN"
 "http://www.w3.org/TR/2001/REC-SVG-20010904/DTD/svg10.dtd">
<svg version="1.0" xmlns="http://www.w3.org/2000/svg"
 width="512.000000pt" height="512.000000pt" viewBox="0 0 512.000000 512.000000"
 preserveAspectRatio="xMidYMid meet">

<g transform="translate(0.000000,512.000000) scale(0.100000,-0.100000)"
fill="#000000" stroke="none">
<path d="M515 5026 c-37 -17 -80 -62 -94 -99 -8 -20 -11 -678 -11 -2160 0
-2047 1 -2134 19 -2172 10 -22 28 -48 39 -58 52 -47 23 -46 1314 -47 l1217 0
-24 -52 c-35 -75 -33 -119 6 -152 35 -30 58 -32 166 -11 43 8 83 15 90 15 6 0
35 -41 63 -90 29 -50 63 -98 76 -107 29 -18 89 -12 113 12 9 9 59 109 112 223
92 197 98 208 133 221 29 11 44 11 79 2 l43 -12 94 -206 c100 -215 126 -253
179 -253 42 0 74 31 127 123 25 45 48 84 50 85 1 2 49 -4 106 -14 57 -9 116
-14 131 -10 30 7 67 58 66 91 0 11 -44 114 -98 230 l-98 210 59 32 c76 40 84
48 115 100 39 67 44 106 31 224 l-11 107 46 94 c57 115 65 164 42 243 -14 50
-29 71 -104 149 l-88 91 -22 97 c-24 104 -53 156 -113 201 -50 38 -82 47 -199
56 -102 7 -109 9 -158 45 l-51 38 0 1049 c0 754 -3 1063 -11 1097 -11 43 -35
70 -283 319 -180 181 -283 277 -308 288 -33 13 -197 15 -1425 15 -1137 -1
-1393 -3 -1418 -14z m2735 -380 c0 -328 -12 -316 325 -316 l225 0 -2 -992 -3
-992 -35 -3 c-59 -6 -114 -31 -191 -89 -40 -30 -83 -57 -94 -59 -42 -8 -195
-12 -195 -5 0 28 -73 30 -1113 28 l-1059 -3 -19 -24 c-25 -31 -24 -79 3 -108
l21 -23 1000 0 c947 0 999 -1 992 -17 -7 -19 -39 -139 -49 -185 -4 -15 -20
-43 -37 -63 l-31 -35 -933 0 c-928 0 -932 0 -959 -21 -35 -28 -36 -80 -1 -114
l24 -25 868 0 868 0 -3 -71 c-3 -63 0 -77 32 -146 20 -41 36 -77 36 -79 0 -2
-407 -4 -905 -4 -892 0 -905 0 -925 -20 -21 -21 -26 -69 -10 -100 5 -10 24
-23 41 -29 23 -8 298 -11 920 -11 l889 0 0 -61 c0 -34 5 -79 12 -101 16 -56
79 -122 143 -153 30 -14 55 -29 54 -33 0 -4 -15 -36 -32 -72 l-32 -65 -1250 0
-1250 0 -3 2113 -2 2112 1340 0 1340 0 0 -234z m430 -153 c0 -2 -61 -3 -135
-3 l-135 0 0 137 0 138 135 -135 c74 -74 135 -136 135 -137z m211 -2369 c94
-72 127 -85 248 -94 111 -8 144 -18 160 -48 5 -9 19 -57 30 -107 27 -111 53
-156 133 -230 68 -62 87 -89 88 -120 0 -11 -22 -67 -50 -125 -55 -115 -58
-139 -39 -274 15 -111 9 -118 -135 -191 l-120 -60 -66 -95 c-87 -125 -98 -130
-210 -97 -142 43 -155 43 -280 7 -144 -41 -151 -38 -231 81 -70 104 -97 126
-211 174 -117 49 -122 58 -112 189 11 141 9 159 -42 264 -64 136 -63 145 40
251 46 47 89 96 95 109 6 12 22 65 36 119 33 136 43 143 181 153 127 9 157 19
256 93 40 30 82 57 93 59 35 7 73 -9 136 -58z m-520 -1552 c18 -18 55 -40 81
-50 27 -9 48 -20 48 -24 0 -4 -18 -47 -40 -95 -45 -96 -40 -96 -90 -7 -33 60
-55 69 -137 56 -37 -6 -69 -9 -72 -7 -2 3 22 61 54 129 l59 125 31 -47 c18
-26 47 -62 66 -80z m971 -4 c31 -68 55 -124 53 -126 -1 -1 -34 3 -72 10 -88
15 -106 5 -153 -79 l-33 -58 -43 90 c-49 101 -50 105 -29 105 24 0 108 46 131
72 12 12 34 42 49 66 15 23 31 42 35 42 3 0 31 -55 62 -122z"/>
<path d="M1778 4721 c-152 -49 -282 -189 -317 -342 -18 -74 -13 -183 10 -252
25 -76 51 -118 107 -179 l43 -46 -57 -26 c-95 -44 -188 -112 -272 -201 -66
-70 -90 -104 -135 -197 -86 -176 -110 -313 -64 -356 l23 -22 597 0 c328 0 597
-1 597 -3 0 -2 -16 -50 -35 -107 -45 -133 -45 -162 -1 -206 26 -26 42 -34 71
-34 47 0 54 4 218 122 l137 100 38 -30 c20 -16 88 -66 150 -111 93 -66 121
-81 150 -81 54 0 99 31 112 77 11 36 8 52 -44 209 -31 94 -56 175 -56 181 0 5
60 53 133 105 72 53 142 107 155 121 31 33 38 86 18 125 -29 56 -54 62 -260
62 l-184 0 -57 176 c-60 187 -77 216 -136 228 -38 7 -91 -14 -113 -45 -9 -13
-33 -76 -52 -139 -20 -63 -38 -117 -40 -119 -1 -2 -33 19 -70 46 -36 28 -100
67 -141 87 l-74 37 35 39 c144 159 171 361 76 551 -56 110 -172 203 -294 235
-72 19 -199 17 -268 -5z m277 -169 c115 -55 178 -154 179 -282 1 -63 -4 -84
-27 -132 -122 -250 -481 -237 -578 21 -28 75 -24 175 11 246 75 153 262 219
415 147z m96 -798 c47 -17 116 -50 153 -75 l67 -44 -141 -5 -142 -5 -29 -33
c-22 -25 -29 -42 -29 -75 0 -23 7 -52 15 -63 8 -12 66 -59 130 -104 63 -46
115 -85 115 -86 0 -2 -236 -4 -524 -4 l-524 0 10 38 c17 64 76 175 127 238 62
76 153 147 248 191 112 52 170 63 313 60 109 -3 136 -7 211 -33z m589 -108
c57 -172 55 -170 231 -174 l140 -4 -103 -74 c-56 -41 -108 -84 -115 -97 -20
-36 -15 -77 22 -193 18 -59 33 -110 31 -111 -1 -1 -47 29 -101 68 -103 75
-152 92 -195 69 -12 -6 -62 -41 -110 -76 -48 -35 -90 -64 -93 -64 -3 0 12 53
34 117 21 64 39 126 39 138 0 39 -39 83 -135 151 l-98 69 135 5 c104 4 140 9
160 22 28 18 51 71 89 202 12 42 23 76 25 76 1 0 21 -56 44 -124z"/>
<path d="M1125 2669 c-16 -5 -36 -16 -42 -26 -20 -26 -16 -80 7 -103 20 -20
33 -20 1094 -20 l1075 0 20 26 c28 35 26 67 -3 101 l-24 28 -1049 2 c-601 1
-1061 -2 -1078 -8z"/>
<path d="M3637 1945 c-107 -29 -206 -95 -280 -185 -143 -173 -156 -440 -31
-629 105 -158 265 -244 454 -243 181 1 346 89 444 237 204 307 45 727 -309
820 -71 18 -212 18 -278 0z m302 -179 c234 -120 289 -407 114 -596 -32 -35
-76 -70 -106 -84 -194 -94 -424 -12 -515 182 -24 50 -27 70 -27 157 0 89 3
106 27 155 51 103 120 166 221 202 80 28 214 21 286 -16z"/>
</g>
</svg>
