<?xml version="1.0" encoding="UTF-8"?>
<!DOCTYPE svg PUBLIC "-//W3C//DTD SVG 1.1//EN" "http://www.w3.org/Graphics/SVG/1.1/DTD/svg11.dtd">
<!-- Creator: CorelDRAW 2021 (64-Bit) -->
<svg xmlns="http://www.w3.org/2000/svg" xml:space="preserve" width="297mm" height="210mm" version="1.1" style="shape-rendering:geometricPrecision; text-rendering:geometricPrecision; image-rendering:optimizeQuality; fill-rule:evenodd; clip-rule:evenodd"
viewBox="0 0 29700 21000"
 xmlns:xlink="http://www.w3.org/1999/xlink"
 xmlns:xodm="http://www.corel.com/coreldraw/odm/2003">
 <defs>
  <style type="text/css">
   <![CDATA[
    .str3 {stroke:black;stroke-width:282.22;stroke-miterlimit:22.9256}
    .str1 {stroke:black;stroke-width:141.11;stroke-linecap:round;stroke-linejoin:round;stroke-miterlimit:22.9256}
    .str2 {stroke:black;stroke-width:141.11;stroke-linecap:round;stroke-linejoin:round;stroke-miterlimit:22.9256}
    .str0 {stroke:black;stroke-width:20;stroke-linecap:round;stroke-linejoin:round;stroke-miterlimit:22.9256}
    .fil0 {fill:black}
    .fil5 {fill:#2A94A2}
    .fil6 {fill:#CBE8EC}
    .fil4 {fill:#D5DC5A}
    .fil2 {fill:#2A94A2;fill-rule:nonzero}
    .fil3 {fill:#CBE8EC;fill-rule:nonzero}
    .fil1 {fill:#D5DC5A;fill-rule:nonzero}
   ]]>
  </style>
 </defs>
 <g id="Capa_x0020_1">
  <metadata id="CorelCorpID_0Corel-Layer"/>
  <circle class="fil0 str0" cx="14044.36" cy="10496.41" r="10165.57"/>
  <path class="fil1 str1" d="M16934.38 16460.84l0 883.98c0,102.25 66.42,170.11 200.67,201.77 65.03,15.39 109.31,37.1 134.23,65.15 26.28,27.14 38.73,77.81 38.73,152.9 0,70.59 -15.22,114.91 -44.27,131.21 -30.44,17.18 -88.57,25.32 -178.51,25.32l-1832.2 0c-96.87,0 -145.31,-56.09 -145.31,-167.38 0,-88.67 6.93,-142.96 20.76,-163.77 12.46,-19.91 59.51,-37.99 137.01,-54.29 70.57,-14.47 113.47,-29.86 131.45,-46.14 18,-17.19 26.3,-46.14 26.3,-86.86l0 -3207.46c0,-76.01 -70.57,-136.63 -211.73,-182.77 -74.72,-26.24 -113.48,-66.05 -116.23,-119.44l-4.15 -122.14c-1.77,-52.46 9.7,-311.92 30.44,-328.2 20.74,-16.27 66.04,-166.17 135.6,-154.29l2074.37 354.91c587.9,100.57 1072.49,124.86 1428.13,374.58 355.64,249.71 532.77,595.36 532.77,1036.89 0,248.82 -55.36,470.49 -164.69,665.01 -109.3,193.63 -247.71,336.58 -413.75,428.88 -166.06,91.38 -358.42,166.48 -575.69,224.38 -218.63,58.82 -449.72,87.76 -696.06,87.76l-507.87 0zm0 -2404.33l0 2100.33 285.08 0c98.25,0 185.43,-35.29 262.94,-104.95 77.48,-69.68 116.23,-185.48 116.23,-348.35l0 -1321.9c0,-296.77 -155.37,-398.66 -456.67,-355.13l-207.58 30z"/>
  <path class="fil2 str1" d="M12831.56 13300.06l-189.59 -688.55c-16.6,-65.13 -69.19,-127.57 -159.14,-188.19 -59.5,-38.9 -88.55,-75.09 -88.55,-110.38l0 -185.48c0,-52.47 38.73,-78.72 117.62,-78.72l1657.81 0c53.99,0 88.57,9.05 103.8,26.25 15.22,18.08 22.14,57 22.14,118.52 0,93.19 -6.92,149.29 -22.14,168.29 -15.23,18.09 -49.81,37.1 -105.16,56.1 -81.67,28.94 -123.18,57 -123.18,85.05 0,37.99 11.07,92.28 33.22,165.58l467.73 1699.18 489.87 -1755.29c2.78,-18.09 4.16,-36.19 4.16,-56.09 0,-81.43 -67.8,-142.96 -204.81,-185.48 -69.18,-21.72 -105.16,-81.44 -107.94,-180.06 0,-26.24 -1.39,-44.34 -4.14,-55.18l0 -23.53c0,-42.53 48.44,-63.34 145.3,-63.34l929.93 0c65.06,0 106.56,7.24 124.55,22.62 19.37,14.47 29.05,47.05 29.05,95.91 0,16.28 -1.36,31.67 -4.14,47.95l-12.44 102.25c-11.08,40.71 -53.99,76.9 -130.09,108.57 -77.51,31.66 -125.94,85.95 -148.06,161.95l-978.38 3500.63c-37.37,138.43 -69.2,220.76 -92.71,247 -24.93,26.25 -69.2,39.82 -134.23,39.82l-682.24 0c-73.35,0 -119.01,-50.67 -138.38,-151.11 -2.78,-19.9 -5.54,-34.37 -8.32,-45.23l-514.78 -1871.11 -512.01 1902.77c-17.99,76.01 -38.75,123.05 -60.9,139.34 -20.76,17.19 -56.74,25.34 -105.17,25.34l-709.89 0c-81.67,0 -139.77,-93.2 -174.39,-278.68 -5.52,-33.48 -11.05,-58.81 -16.58,-76.91l-970.07 -3431.86c-20.58,-72.83 -77.23,-506.6 -168.82,-539.25 -75.83,-27.03 -162.89,-204.46 -113.48,-193.25l113.48 25.79c39.69,9 -76.13,167.46 0,167.46l1608.01 0c53.95,0 92.71,9.05 114.85,28.05 20.74,18.1 31.83,60.62 31.83,127.57 0,76.01 -4.16,123.06 -12.45,142.96 -8.31,19 -34.62,40.72 -78.89,65.15 -55.34,34.37 -81.64,68.76 -81.64,104.05 0,40.72 6.9,90.48 23.51,151.1l512.03 1808.66 323.82 -1176.22z"/>
  <path class="fil3 str2" d="M8373.02 12473.83l-189.58 -688.54c-16.61,-65.14 -69.2,-127.58 -159.14,-188.2 -59.51,-38.9 -88.56,-75.09 -88.56,-110.38l0 -185.48c0,-52.47 38.73,-78.72 117.62,-78.72l1657.82 0c53.99,0 88.57,9.05 103.8,26.25 15.22,18.08 22.14,57 22.14,118.53 0,93.18 -6.92,149.28 -22.14,168.29 -15.23,18.08 -49.81,37.09 -105.16,56.09 -81.67,28.95 -123.18,57 -123.18,85.05 0,37.99 11.07,92.28 33.22,165.58l467.73 1699.18 489.87 -1755.29c2.78,-18.08 4.15,-36.18 4.15,-56.09 0,-81.43 -67.79,-142.96 -204.8,-185.48 -69.18,-21.72 -105.16,-81.43 -107.94,-180.06 0,-26.23 -1.39,-44.34 -4.14,-55.18l0 -23.53c0,-42.53 48.44,-63.34 145.3,-63.34l929.92 0c65.06,0 106.57,7.24 124.55,22.63 19.38,14.46 29.06,47.05 29.06,95.9 0,16.28 -1.37,31.67 -4.14,47.95l-12.45 102.25c-11.08,40.72 -53.99,76.9 -130.09,108.58 -77.5,31.66 -125.93,85.95 -148.06,161.94l-978.37 3500.63c-37.37,138.44 -69.2,220.76 -92.71,247 -24.93,26.25 -69.2,39.82 -134.23,39.82l-682.24 0c-73.35,0 -119.01,-50.67 -138.38,-151.11 -2.78,-19.9 -5.55,-34.37 -8.32,-45.23l-514.78 -1871.1 -512.01 1902.76c-18,76.01 -38.76,123.06 -60.91,139.34 -20.76,17.19 -56.74,25.34 -105.16,25.34l-709.89 0c-81.67,0 -139.77,-93.2 -174.39,-278.68 -5.53,-33.48 -11.05,-58.81 -16.58,-76.91l-970.07 -3431.86c-22.15,-72.37 -77.51,-125.76 -168.83,-159.23 -76.12,-26.25 -113.48,-65.15 -113.48,-115.82l0 -203.58c0,-40.7 37.36,-60.62 113.48,-60.62l1608.02 0c53.95,0 92.71,9.05 114.84,28.05 20.75,18.1 31.83,60.62 31.83,127.57 0,76.01 -4.15,123.06 -12.44,142.97 -8.32,18.99 -34.62,40.71 -78.89,65.14 -55.34,34.38 -81.64,68.76 -81.64,104.05 0,40.72 6.9,90.48 23.51,151.1l512.03 1808.67 323.81 -1176.23z"/>
  <polygon class="fil4" points="8341.97,4701.46 8798.53,4701.46 8798.53,8500.51 8341.97,8826.45 "/>
  <polygon class="fil4" points="19268.28,4766.49 18813.01,4764.53 18810.5,10263.79 19254.32,10283.77 "/>
  <polygon class="fil4" points="8587.94,5918.57 19258.32,5918.57 19258.32,6357.7 8587.94,6357.7 "/>
  <polygon class="fil4" points="8587.94,4703.32 19258.32,4703.32 19258.32,5142.44 8587.94,5142.44 "/>
  <polygon class="fil4" points="14013.26,1841.53 13714.06,2062.95 19347.28,5139.03 19740.36,4971.48 14337.47,2011.75 "/>
  <polygon class="fil4" points="13765.36,1723.94 14154.04,1915.43 8249.65,5147.8 7836.6,4971.74 "/>
  <rect class="fil4" x="13621.35" y="2094.67" width="397.38" height="7035.8"/>
  <rect class="fil4" x="10818.68" y="3435.87" width="397.38" height="4881.66"/>
  <rect class="fil4" x="16462.94" y="3509.87" width="397.38" height="6232.81"/>
  <path class="fil5 str3" d="M20692.21 12391.39c-4765.49,1327.14 -11648.97,-5232.42 -15659.43,-576.55 5324.4,-1773.15 13335.52,4829.93 15659.43,576.55z"/>
  <path class="fil6 str3" d="M23949.69 10055.69c-5333.64,1946.76 -15077.33,-6275.72 -19579.75,-128.07 6314.93,-2689.6 16370.33,5532.88 19579.75,128.07z"/>
 </g>
</svg>
