<?xml version="1.0" standalone="no"?>
<!DOCTYPE svg PUBLIC "-//W3C//DTD SVG 20010904//EN"
 "http://www.w3.org/TR/2001/REC-SVG-20010904/DTD/svg10.dtd">
<svg version="1.0" xmlns="http://www.w3.org/2000/svg"
 width="512.000000pt" height="512.000000pt" viewBox="0 0 512.000000 512.000000"
 preserveAspectRatio="xMidYMid meet">

<g transform="translate(0.000000,512.000000) scale(0.100000,-0.100000)"
fill="#000000" stroke="none">
<path d="M782 4945 c-12 -9 -148 -169 -302 -356 l-280 -340 0 -1965 c0 -1914
0 -1966 19 -2002 25 -48 66 -87 113 -106 33 -14 226 -16 1770 -16 1178 0 1745
3 1771 11 49 13 105 63 128 114 17 37 19 85 19 758 l0 717 56 0 c31 0 71 7 90
16 41 19 74 83 74 142 0 31 5 44 20 52 18 9 28 5 66 -29 97 -85 147 -67 327
118 160 165 172 203 87 295 -35 38 -38 44 -27 66 11 21 21 26 72 30 69 6 97
22 120 65 14 25 16 61 13 238 l-3 209 -37 34 c-34 31 -43 34 -97 34 -44 0 -60
4 -65 16 -11 30 -6 51 20 75 53 49 67 106 40 157 -26 48 -279 291 -313 301
-45 13 -97 -3 -143 -45 -53 -48 -75 -37 -83 41 -10 99 -61 145 -159 145 l-58
0 0 538 c0 498 -2 540 -19 577 -23 51 -79 101 -128 114 -26 8 -527 11 -1553
11 -1350 0 -1518 -2 -1538 -15z m3065 -143 c30 -19 33 -70 33 -573 l0 -509
-60 0 c-116 0 -170 -47 -170 -148 0 -46 -3 -54 -25 -64 -23 -10 -29 -8 -63 25
-84 82 -141 70 -268 -54 l-90 -89 -1077 0 c-1064 0 -1077 0 -1097 -20 -26 -26
-25 -68 2 -97 l21 -23 1024 0 1023 0 0 -31 c0 -37 13 -65 53 -106 27 -29 29
-35 19 -58 -10 -22 -18 -25 -64 -25 -101 0 -148 -56 -148 -174 l0 -65 -339 -3
c-317 -3 -340 -4 -360 -22 -31 -28 -28 -79 5 -105 26 -20 38 -21 360 -21 l334
0 0 -40 c0 -95 54 -150 148 -150 46 0 54 -3 64 -25 10 -23 8 -29 -19 -58 -17
-17 -36 -42 -42 -54 -14 -27 -14 -88 -1 -114 10 -18 6 -19 -164 -19 -96 0
-186 -4 -199 -9 -29 -11 -48 -57 -36 -87 18 -51 35 -54 304 -54 l251 0 59 -60
c94 -95 156 -101 239 -25 32 29 41 33 62 25 21 -8 24 -16 24 -62 0 -59 24
-108 62 -130 13 -7 55 -15 93 -18 l70 -5 3 -675 c1 -371 0 -689 -3 -707 -12
-69 144 -63 -1766 -63 -1716 0 -1729 0 -1749 20 -20 20 -20 33 -20 1920 l0
1900 205 0 c184 0 210 2 244 19 50 26 97 81 110 128 6 22 11 141 11 276 l0
237 1463 0 c804 0 1467 -4 1474 -8z m-3087 -290 c0 -138 -3 -183 -14 -198 -13
-17 -30 -19 -165 -22 -83 -2 -151 -1 -151 3 0 7 320 395 326 395 2 0 4 -80 4
-178z m3330 -997 c0 -83 12 -99 99 -135 120 -51 131 -50 191 6 l51 48 104
-104 104 -104 -49 -52 c-28 -29 -50 -60 -50 -69 0 -9 14 -47 30 -85 17 -38 30
-73 30 -79 0 -6 9 -20 20 -31 16 -16 33 -20 90 -20 l70 0 0 -150 0 -150 -67 0
c-55 0 -71 -4 -90 -22 -13 -12 -23 -26 -23 -31 0 -5 -13 -39 -30 -77 -16 -38
-30 -76 -30 -85 0 -9 22 -40 50 -69 l49 -52 -104 -104 -104 -104 -51 48 c-59
55 -72 56 -180 11 -92 -38 -110 -60 -110 -141 l0 -65 -147 3 -148 3 -3 72 c-2
48 -8 75 -18 84 -21 17 -174 79 -196 79 -11 0 -41 -21 -69 -47 l-50 -47 -104
104 -104 104 45 49 c41 43 45 52 41 85 -6 51 -54 163 -79 185 -15 12 -38 17
-84 17 l-64 0 0 150 0 150 68 0 c53 0 72 4 84 18 23 25 70 141 75 184 4 33 0
42 -41 85 l-45 49 104 104 105 104 49 -48 c57 -56 71 -57 181 -11 95 40 100
46 100 127 l0 68 150 0 150 0 0 -55z"/>
<path d="M2102 3977 c-27 -29 -28 -71 -2 -97 20 -20 33 -20 698 -20 668 0 679
0 697 20 26 29 24 79 -4 102 -22 17 -57 18 -695 18 l-673 0 -21 -23z"/>
<path d="M1574 2681 c-17 -5 -58 -23 -90 -42 -57 -33 -63 -34 -161 -34 -116 0
-133 -8 -190 -86 -18 -24 -41 -55 -52 -69 -11 -16 -41 -33 -76 -44 -105 -33
-143 -85 -160 -220 -6 -42 -15 -58 -60 -105 -82 -86 -91 -129 -54 -251 l20
-68 -20 -67 c-38 -122 -28 -170 54 -256 45 -47 54 -63 60 -105 11 -87 26 -128
64 -165 20 -20 43 -38 51 -41 11 -3 -16 -59 -109 -220 -134 -236 -142 -262
-90 -300 25 -19 27 -19 144 7 65 14 119 24 120 23 1 -2 19 -54 39 -116 24 -72
44 -116 56 -122 29 -16 75 -12 92 8 9 9 74 119 144 243 l129 225 40 -18 c53
-23 126 -23 175 2 l38 20 136 -239 c75 -131 143 -242 152 -245 30 -11 71 -6
86 12 9 9 30 62 48 117 18 55 35 103 39 107 3 4 57 -4 119 -17 121 -26 152
-23 171 14 6 11 11 28 11 38 0 10 -56 117 -125 237 -69 120 -124 220 -123 221
2 1 20 12 41 24 47 29 74 80 83 160 6 59 11 68 64 128 76 85 88 127 64 214
-23 80 -23 136 0 219 25 90 13 129 -63 213 -54 60 -59 68 -65 127 -13 115 -49
158 -163 200 -57 20 -65 27 -108 92 -62 94 -103 113 -219 104 -79 -7 -82 -6
-131 25 -43 28 -126 61 -144 58 -3 -1 -20 -4 -37 -8z m107 -175 c77 -46 91
-50 191 -47 l88 2 35 -55 c44 -70 92 -108 159 -129 30 -10 58 -23 64 -30 5 -6
12 -38 16 -70 9 -81 27 -119 87 -183 l53 -55 -12 -42 c-36 -125 -37 -143 -14
-222 12 -41 22 -80 22 -86 0 -7 -23 -36 -50 -65 -60 -63 -78 -102 -87 -184 -3
-33 -11 -64 -17 -68 -6 -5 -38 -19 -72 -31 -70 -26 -103 -53 -150 -127 l-34
-53 -98 2 -97 2 -75 -44 -74 -44 -81 44 -80 44 -96 -2 -96 -3 -37 60 c-45 73
-68 92 -155 125 -72 27 -81 39 -81 109 0 53 -24 101 -81 162 -64 69 -64 67
-32 158 19 54 16 124 -7 198 -11 34 -20 64 -20 65 0 2 26 31 58 67 59 65 81
113 83 177 1 57 12 70 78 95 86 32 114 55 156 124 l37 60 91 -1 c98 -2 133 7
204 55 21 14 44 26 53 26 8 0 40 -15 71 -34z m523 -1595 c42 -74 75 -135 74
-137 -2 -1 -31 4 -66 12 -88 21 -110 9 -140 -76 -13 -35 -25 -66 -27 -68 -3
-3 -155 261 -155 269 0 2 24 4 54 5 67 1 114 29 153 89 15 24 28 43 29 42 1
-1 36 -62 78 -136z m-1069 86 c36 -50 104 -87 158 -87 47 0 50 9 -42 -151 -41
-72 -72 -117 -75 -108 -32 90 -45 115 -66 131 -24 17 -30 18 -95 4 -38 -8 -70
-14 -71 -13 -3 4 151 267 156 266 3 0 19 -19 35 -42z"/>
<path d="M1513 2340 c-223 -40 -412 -216 -468 -435 -19 -76 -19 -214 0 -290
98 -376 534 -557 864 -357 141 85 243 228 276 387 19 90 19 138 -1 233 -45
216 -198 382 -413 446 -68 20 -191 28 -258 16z m226 -159 c279 -87 399 -415
241 -659 -165 -257 -536 -268 -720 -23 -130 172 -113 414 39 570 50 51 143
105 209 120 65 16 167 12 231 -8z"/>
<path d="M1752 1943 c-11 -10 -55 -58 -97 -108 -43 -49 -81 -91 -85 -93 -4 -1
-30 16 -59 39 -59 47 -98 54 -131 24 -12 -11 -20 -31 -20 -51 0 -27 9 -41 53
-79 94 -82 151 -117 181 -109 28 7 258 264 270 302 10 29 -10 71 -39 82 -37
14 -50 13 -73 -7z"/>
<path d="M2730 1550 c-26 -26 -26 -81 -2 -103 17 -15 58 -17 384 -17 353 0
365 1 383 20 26 29 24 79 -4 102 -22 17 -48 18 -382 18 -346 0 -360 -1 -379
-20z"/>
<path d="M2632 937 c-28 -29 -28 -57 -1 -91 l20 -26 414 0 414 0 20 26 c12 15
21 34 21 44 0 10 -9 29 -21 44 l-20 26 -413 0 -413 0 -21 -23z"/>
<path d="M3836 3159 c-65 -15 -153 -69 -206 -125 -203 -215 -134 -560 137
-686 168 -79 389 -29 506 114 63 77 90 150 95 254 5 111 -11 175 -67 262 -96
147 -288 222 -465 181z m44 -418 c0 -149 -4 -272 -9 -275 -14 -9 -109 44 -137
77 -102 120 -98 292 8 398 37 37 92 68 121 69 16 0 17 -19 17 -269z m199 249
c82 -42 151 -155 151 -249 0 -64 -27 -135 -71 -185 -38 -43 -102 -86 -129 -86
-7 0 -10 90 -10 270 0 180 3 270 10 270 6 0 28 -9 49 -20z"/>
</g>
</svg>
