<?xml version="1.0" standalone="no"?>
<!DOCTYPE svg PUBLIC "-//W3C//DTD SVG 20010904//EN"
 "http://www.w3.org/TR/2001/REC-SVG-20010904/DTD/svg10.dtd">
<svg version="1.0" xmlns="http://www.w3.org/2000/svg"
 width="512.000000pt" height="512.000000pt" viewBox="0 0 512.000000 512.000000"
 preserveAspectRatio="xMidYMid meet">

<g transform="translate(0.000000,512.000000) scale(0.100000,-0.100000)"
fill="#000000" stroke="none">
<path d="M2133 4916 l-28 -24 -3 -269 -3 -268 -77 -22 c-92 -25 -264 -98 -347
-146 l-60 -34 -191 188 c-172 171 -193 189 -224 189 -32 0 -57 -23 -322 -288
-265 -264 -288 -290 -288 -322 0 -31 17 -51 187 -222 l187 -187 -51 -103 c-61
-123 -107 -236 -132 -327 l-18 -66 -271 -3 -271 -2 -20 -27 c-20 -25 -21 -37
-21 -424 l0 -398 24 -28 24 -28 267 -5 267 -5 34 -104 c43 -131 92 -242 160
-358 85 -145 110 -149 229 -32 l83 81 41 -55 41 -56 -240 -381 c-132 -210
-243 -392 -246 -406 -7 -29 17 -70 49 -85 17 -7 80 3 262 41 132 28 264 56
293 62 29 6 55 8 59 4 4 -3 35 -138 69 -298 52 -246 66 -295 84 -310 26 -21
69 -23 93 -6 9 7 129 191 266 408 191 303 253 395 267 393 11 -1 57 -7 104
-12 140 -18 341 -12 470 14 23 4 41 -21 270 -386 135 -215 256 -400 269 -410
32 -25 64 -24 95 4 22 19 32 57 86 312 33 159 63 291 66 294 2 3 137 -23 299
-58 280 -59 296 -61 324 -46 35 18 49 56 34 94 -5 14 -114 192 -241 394 -128
203 -232 373 -232 378 0 5 10 23 22 39 l22 30 62 -60 c100 -97 135 -84 225 81
58 108 116 241 149 349 l27 85 267 5 268 5 24 28 24 28 0 398 c0 388 -1 399
-21 425 l-20 26 -170 0 c-93 0 -169 1 -169 3 0 1 32 36 72 77 132 137 223 302
276 499 22 83 25 117 26 256 0 133 -4 175 -22 248 -104 416 -403 715 -819 819
-73 18 -115 22 -248 22 -139 -1 -173 -4 -256 -26 -196 -53 -364 -145 -499
-276 l-69 -67 -3 163 -3 164 -28 24 -28 24 -399 0 -399 0 -28 -24z m727 -367
l0 -231 -32 -86 -32 -87 -201 -1 c-169 0 -216 -4 -305 -23 -507 -109 -910
-422 -1125 -874 -107 -226 -144 -380 -152 -627 -9 -286 35 -513 143 -733 l28
-57 -51 -52 -52 -52 -45 94 c-41 85 -116 301 -131 373 -3 15 -14 36 -25 47
-19 19 -34 20 -280 20 l-260 0 0 295 0 295 240 0 c267 0 298 6 317 56 7 16 23
71 38 123 35 127 90 259 160 380 46 82 56 106 50 129 -4 17 -73 94 -183 205
l-177 177 208 208 207 207 177 -177 c111 -111 188 -179 205 -183 22 -6 49 5
135 53 150 84 325 153 476 186 15 4 36 15 47 26 19 19 20 34 20 280 l0 260
300 0 300 0 0 -231z m1143 216 c468 -82 799 -494 774 -965 -22 -399 -286 -731
-674 -846 -116 -34 -301 -43 -418 -21 -327 63 -601 293 -710 599 -45 128 -59
224 -52 366 27 555 534 962 1080 867z m-1272 -781 c32 -5 35 -9 31 -33 l-4
-28 -151 1 c-295 0 -545 -75 -778 -235 -294 -202 -492 -496 -571 -850 -33
-150 -33 -408 0 -558 63 -281 199 -522 402 -714 191 -180 409 -293 673 -348
146 -31 380 -31 527 0 278 59 487 170 686 363 166 161 278 338 347 548 53 163
62 223 62 438 l0 193 24 6 c14 3 26 1 31 -7 16 -25 22 -234 10 -340 -38 -351
-182 -644 -438 -892 -194 -188 -427 -312 -695 -370 -83 -18 -136 -22 -287 -22
-207 -1 -280 10 -457 69 -425 142 -761 477 -902 902 -56 168 -66 238 -65 468
1 201 2 215 31 325 74 280 184 473 382 670 158 157 331 267 532 338 83 29 246
68 319 75 61 7 254 7 291 1z m25 -227 c2 -2 8 -36 15 -77 43 -285 210 -551
452 -724 133 -95 341 -174 500 -191 l65 -7 6 -37 c11 -68 6 -288 -9 -372 -8
-46 -27 -122 -43 -169 -208 -611 -839 -950 -1462 -785 -115 31 -310 125 -401
194 -516 392 -641 1096 -290 1634 64 98 193 233 295 309 154 115 375 203 567
228 63 7 297 5 305 -3z m2024 -1202 l0 -295 -260 0 c-246 0 -261 -1 -280 -20
-11 -11 -22 -32 -25 -47 -17 -77 -91 -289 -131 -372 l-45 -95 -26 27 -27 26
47 98 c132 282 181 592 141 888 l-5 40 58 22 c53 20 77 21 306 22 l247 1 0
-295z m-3237 -1186 c144 -126 377 -264 522 -309 22 -7 44 -16 49 -20 7 -7
-332 -560 -344 -560 -3 0 -27 102 -53 228 -27 125 -55 237 -63 249 -8 13 -25
25 -38 29 -14 3 -127 -16 -262 -45 -131 -28 -239 -49 -240 -48 -2 3 340 547
344 547 2 0 40 -32 85 -71z m2366 -201 c94 -149 170 -273 168 -274 -1 -1 -111
21 -244 49 -261 55 -277 55 -301 3 -5 -11 -31 -123 -57 -249 -40 -188 -50
-224 -60 -209 -13 19 -328 520 -338 539 -5 7 18 21 65 38 184 70 383 190 518
314 36 33 68 60 72 61 3 0 83 -122 177 -272z"/>
<path d="M4304 4238 c-16 -13 -177 -164 -358 -336 l-328 -314 -152 151 c-163
162 -178 171 -229 131 -32 -26 -41 -63 -23 -98 8 -15 93 -105 189 -199 162
-161 177 -173 211 -173 35 0 55 18 339 287 485 462 477 454 477 491 0 40 -38
82 -73 82 -13 0 -37 -10 -53 -22z"/>
<path d="M2540 3680 c-27 -27 -29 -147 -2 -179 28 -34 73 -37 108 -8 27 24 29
30 29 97 0 63 -3 74 -24 91 -31 25 -85 25 -111 -1z"/>
<path d="M2563 3410 c-12 -5 -26 -18 -32 -29 -7 -13 -11 -133 -11 -343 l0
-324 -38 -37 -38 -37 -203 0 -203 0 -29 -29 c-37 -37 -37 -65 0 -102 l29 -29
204 0 203 0 34 -35 c104 -107 281 -36 281 113 0 51 -23 105 -56 131 l-23 18
-3 333 -3 332 -28 24 c-30 25 -48 28 -84 14z"/>
<path d="M1493 2628 c-27 -13 -47 -59 -38 -88 14 -43 45 -60 111 -60 80 0 114
24 114 80 0 55 -34 80 -109 79 -31 0 -66 -5 -78 -11z"/>
<path d="M3535 2615 c-16 -15 -25 -36 -25 -55 0 -19 9 -40 25 -55 21 -22 33
-25 90 -25 57 0 69 3 90 25 33 32 33 78 0 110 -21 22 -33 25 -90 25 -57 0 -69
-3 -90 -25z"/>
<path d="M2563 1640 c-32 -13 -43 -41 -43 -114 0 -53 4 -70 20 -86 26 -26 80
-26 111 -1 21 17 24 28 24 90 0 57 -4 74 -20 90 -25 24 -63 33 -92 21z"/>
</g>
</svg>
