<?xml version="1.0" standalone="no"?>
<!DOCTYPE svg PUBLIC "-//W3C//DTD SVG 20010904//EN"
 "http://www.w3.org/TR/2001/REC-SVG-20010904/DTD/svg10.dtd">
<svg version="1.0" xmlns="http://www.w3.org/2000/svg"
 width="512.000000pt" height="512.000000pt" viewBox="0 0 512.000000 512.000000"
 preserveAspectRatio="xMidYMid meet">

<g transform="translate(0.000000,512.000000) scale(0.100000,-0.100000)"
fill="#000000" stroke="none">
<path d="M1940 4775 c-177 -28 -339 -107 -462 -223 -187 -176 -269 -404 -252
-697 l6 -110 -43 -31 c-27 -18 -55 -51 -74 -85 -40 -74 -47 -207 -17 -327 39
-154 137 -324 211 -368 25 -15 36 -36 66 -122 55 -159 138 -313 231 -429 l25
-31 -138 -77 c-264 -145 -499 -252 -734 -333 -197 -68 -292 -125 -404 -243
-183 -194 -293 -454 -341 -809 -20 -155 -19 -204 8 -235 20 -22 55 -34 238
-80 1079 -269 2132 -314 3203 -134 380 63 847 174 882 210 17 17 20 31 17 102
-6 174 -58 421 -121 574 l-29 71 341 4 c335 3 343 4 395 27 69 31 137 106 157
174 12 41 15 118 15 407 0 422 -2 433 -84 515 -89 89 -60 86 -767 83 -608 -3
-614 -3 -654 -25 -47 -25 -105 -84 -131 -133 -16 -30 -19 -63 -22 -242 -2
-115 -6 -208 -9 -208 -13 0 -256 106 -347 152 -108 54 -346 185 -359 197 -5 5
17 41 48 82 69 92 155 258 195 377 27 82 36 96 98 158 109 111 188 293 199
460 9 135 -30 238 -112 293 l-35 24 0 154 c0 175 -15 268 -62 380 -100 242
-299 410 -566 480 -84 22 -123 25 -292 29 -136 2 -221 -1 -280 -11z m498 -161
c98 -20 179 -53 259 -105 59 -38 163 -140 163 -159 0 -12 -115 -56 -207 -79
-193 -49 -377 -48 -545 5 -100 32 -152 58 -237 118 -36 25 -74 46 -84 46 -11
0 -86 -34 -168 -75 -82 -42 -149 -73 -149 -70 0 17 66 98 122 151 89 83 218
148 349 173 81 16 412 13 497 -5z m-611 -381 c73 -47 191 -97 296 -125 70 -19
108 -22 257 -23 157 0 186 3 282 27 58 15 145 43 192 61 48 19 88 32 90 28 2
-3 12 -35 23 -71 15 -55 17 -96 15 -269 -2 -197 -1 -205 19 -227 12 -13 34
-26 50 -29 41 -9 79 -58 80 -103 3 -130 -34 -263 -103 -368 -40 -61 -49 -67
-192 -148 -164 -92 -261 -139 -374 -180 l-73 -26 -9 25 c-15 39 -43 46 -199
52 -145 6 -149 5 -171 -17 -22 -22 -23 -27 -16 -134 13 -203 29 -246 87 -246
45 0 283 60 298 75 8 7 17 30 20 50 6 36 8 38 88 65 83 28 243 99 301 133 17
10 32 17 32 14 0 -19 -69 -153 -116 -225 -244 -374 -613 -443 -901 -169 -133
127 -222 276 -289 487 -42 130 -45 136 -89 154 -94 39 -206 299 -192 443 7 72
21 91 82 118 29 13 58 32 64 42 6 11 8 89 4 208 -4 151 -2 194 8 207 10 12
337 192 376 207 2 1 29 -16 60 -36z m3057 -1787 c18 -7 42 -26 54 -41 22 -27
22 -33 22 -396 l0 -369 -34 -38 -34 -37 -457 -3 -456 -3 -81 -84 c-45 -47 -85
-85 -90 -85 -4 0 -8 28 -8 63 0 74 -19 100 -84 112 -47 8 -93 53 -101 98 -3
18 -5 184 -3 369 3 322 4 338 24 365 47 65 31 63 652 63 456 0 569 -3 596 -14z
m-3061 -254 c232 -152 525 -144 752 19 l43 31 114 -64 c62 -36 162 -91 221
-122 l108 -58 -24 -31 c-13 -18 -127 -171 -252 -342 -125 -170 -242 -327 -258
-349 l-31 -39 -32 173 c-30 155 -31 175 -18 195 15 23 63 270 66 339 1 31 -4
44 -26 63 -27 23 -28 23 -296 23 -151 0 -280 -4 -294 -10 -48 -18 -51 -42 -21
-221 16 -101 33 -174 44 -189 16 -24 16 -32 -13 -187 -17 -90 -33 -163 -36
-163 -7 1 -563 741 -558 744 1 2 64 34 138 73 74 39 169 91 210 116 41 25 78
46 82 46 4 1 41 -21 81 -47z m-187 -884 c257 -343 480 -638 497 -655 40 -43
83 -44 119 -5 14 15 229 304 478 642 249 338 458 621 464 628 10 11 36 3 139
-39 l127 -52 0 -102 c0 -94 2 -107 31 -164 31 -61 82 -110 137 -132 21 -8 22
-13 22 -133 0 -68 3 -132 6 -141 9 -23 60 -46 88 -39 13 3 84 66 156 140 73
74 134 134 136 134 10 0 65 -125 92 -210 30 -95 64 -254 77 -361 l6 -57 -79
-21 c-371 -100 -876 -187 -1312 -227 -241 -21 -786 -29 -1040 -15 -525 30
-1094 120 -1584 252 l-38 10 6 72 c31 316 159 624 327 783 91 85 156 121 330
183 90 32 200 74 244 94 44 19 86 36 92 36 7 1 223 -279 479 -621z m699 505
c-11 -89 -1 -83 -155 -83 l-138 0 -7 48 c-3 26 -9 57 -12 70 l-5 22 162 0 162
0 -7 -57z m-13 -488 c26 -137 45 -256 43 -263 -5 -15 -165 -232 -171 -232 -3
0 -174 224 -187 246 -4 7 13 119 38 250 25 132 45 243 45 247 0 4 42 6 92 5
l93 -3 47 -250z"/>
<path d="M3862 2197 c-29 -31 -28 -72 3 -102 l24 -25 400 0 c220 0 407 3 416
6 23 9 47 61 39 87 -18 59 1 57 -449 57 l-412 0 -21 -23z"/>
<path d="M3865 1925 c-40 -39 -32 -96 16 -120 23 -12 94 -15 411 -15 410 0
419 1 447 51 19 33 1 81 -35 98 -17 7 -148 11 -420 11 l-395 0 -24 -25z"/>
</g>
</svg>
