<?xml version="1.0" standalone="no"?>
<!DOCTYPE svg PUBLIC "-//W3C//DTD SVG 20010904//EN"
 "http://www.w3.org/TR/2001/REC-SVG-20010904/DTD/svg10.dtd">
<svg version="1.0" xmlns="http://www.w3.org/2000/svg"
 width="512.000000pt" height="512.000000pt" viewBox="0 0 512.000000 512.000000"
 preserveAspectRatio="xMidYMid meet">

<g transform="translate(0.000000,512.000000) scale(0.100000,-0.100000)"
fill="#000000" stroke="none">
<path d="M10 3327 l0 -1792 598 -598 597 -597 1039 0 1039 0 298 -170 298
-171 353 202 c417 238 469 273 575 382 118 122 189 235 246 394 56 155 57 173
57 954 l0 719 -199 0 c-215 0 -316 12 -436 53 -220 75 -404 218 -538 419 -29
43 -54 77 -57 78 -3 0 -35 -41 -70 -92 -160 -227 -348 -359 -610 -430 -63 -17
-115 -21 -317 -25 l-243 -5 0 -677 c0 -431 4 -709 11 -766 29 -237 133 -454
298 -625 l68 -70 -849 0 -848 0 2 162 3 163 538 3 537 2 -2 738 -3 737 -862 3
-863 2 0 -330 0 -330 -250 0 -250 0 2 1648 3 1647 1810 0 1810 0 3 -742 2
-743 80 0 80 0 0 825 0 825 -1975 0 -1975 0 0 -1793z m4126 -639 c204 -135
391 -192 671 -205 l144 -6 -3 -646 c-4 -628 -4 -648 -26 -724 -47 -169 -143
-330 -263 -441 -82 -76 -101 -88 -462 -295 l-318 -182 -332 190 c-367 210
-375 215 -466 304 -115 113 -188 234 -238 394 l-28 88 -3 656 -3 656 138 6
c170 8 283 27 399 68 176 61 357 178 471 303 l58 64 96 -92 c52 -51 127 -113
165 -138z m-1906 -1113 l0 -575 -452 2 -453 3 -3 328 -2 327 -245 0 -245 0 0
245 0 245 700 0 700 0 0 -575z m-1070 -512 l0 -438 -430 430 c-237 236 -430
433 -430 437 0 5 193 8 430 8 l430 0 0 -437z"/>
<path d="M4010 1745 l-545 -545 -135 135 -135 135 -58 -58 -57 -57 193 -193
192 -192 605 605 605 605 -55 55 c-30 30 -57 55 -60 55 -3 0 -250 -245 -550
-545z"/>
<path d="M4618 1518 c-3 -299 -4 -304 -30 -377 -43 -117 -125 -226 -220 -289
l-38 -25 38 -68 c20 -38 42 -69 48 -69 23 0 149 106 196 165 64 79 124 198
148 291 18 68 20 112 20 376 l0 298 -79 0 -79 0 -4 -302z"/>
<path d="M992 1908 l3 -83 535 0 535 0 3 83 3 82 -541 0 -541 0 3 -82z"/>
<path d="M1490 1580 l0 -80 290 0 290 0 0 80 0 80 -290 0 -290 0 0 -80z"/>
<path d="M1490 1250 l0 -80 290 0 290 0 0 80 0 80 -290 0 -290 0 0 -80z"/>
<path d="M500 4545 l0 -245 1485 0 1485 0 0 245 0 245 -1485 0 -1485 0 0 -245z
m2800 0 l0 -85 -1315 0 -1315 0 0 85 0 85 1315 0 1315 0 0 -85z"/>
<path d="M500 3885 l0 -85 1320 0 1321 0 -3 83 -3 82 -1317 3 -1318 2 0 -85z"/>
<path d="M3300 3885 l0 -86 83 3 82 3 0 80 0 80 -82 3 -83 3 0 -86z"/>
<path d="M500 3555 l0 -85 1320 0 1321 0 -3 83 -3 82 -1317 3 -1318 2 0 -85z"/>
<path d="M3300 3555 l0 -86 83 3 82 3 0 80 0 80 -82 3 -83 3 0 -86z"/>
<path d="M500 3225 l0 -85 1318 2 1317 3 3 83 3 82 -1321 0 -1320 0 0 -85z"/>
<path d="M3300 3225 l0 -86 83 3 82 3 0 80 0 80 -82 3 -83 3 0 -86z"/>
<path d="M500 2895 l0 -85 783 2 782 3 0 80 0 80 -782 3 -783 2 0 -85z"/>
<path d="M2230 2895 l0 -86 83 3 82 3 0 80 0 80 -82 3 -83 3 0 -86z"/>
<path d="M500 2565 l0 -85 783 2 782 3 0 80 0 80 -782 3 -783 2 0 -85z"/>
<path d="M2230 2565 l0 -86 83 3 82 3 0 80 0 80 -82 3 -83 3 0 -86z"/>
</g>
</svg>
