<?xml version="1.0" standalone="no"?>
<!DOCTYPE svg PUBLIC "-//W3C//DTD SVG 20010904//EN"
 "http://www.w3.org/TR/2001/REC-SVG-20010904/DTD/svg10.dtd">
<svg version="1.0" xmlns="http://www.w3.org/2000/svg"
 width="512.000000pt" height="512.000000pt" viewBox="0 0 512.000000 512.000000"
 preserveAspectRatio="xMidYMid meet">

<g transform="translate(0.000000,512.000000) scale(0.100000,-0.100000)"
fill="#000000" stroke="none">
<path d="M2538 4666 c-26 -7 -64 -25 -85 -39 -21 -15 -554 -543 -1184 -1174
-1279 -1280 -1184 -1175 -1184 -1323 1 -61 5 -84 27 -125 20 -37 218 -241 765
-786 814 -812 769 -774 898 -774 131 0 40 -83 1327 1203 992 992 1171 1174
1189 1217 19 42 22 67 21 155 -1 58 -4 137 -8 176 l-6 71 61 7 c439 50 748
393 667 740 -79 334 -465 561 -877 516 l-102 -11 -56 29 c-63 34 -141 58 -216
67 -42 5 -1170 66 -1185 64 -3 0 -26 -6 -52 -13z m707 -181 c264 -14 509 -30
544 -36 170 -28 272 -133 300 -309 13 -84 45 -690 36 -698 -11 -12 -139 27
-220 68 -44 21 -101 58 -128 81 l-47 41 49 54 c60 65 85 132 84 225 0 122 -67
225 -181 281 -57 28 -77 33 -142 33 -65 0 -85 -5 -142 -33 -114 -56 -182 -160
-182 -282 -1 -100 26 -164 98 -236 67 -67 126 -94 205 -94 42 0 49 -4 107 -64
114 -115 259 -193 422 -226 l87 -17 7 -54 c4 -30 8 -103 9 -164 2 -85 -1 -117
-14 -140 -8 -16 -526 -539 -1149 -1162 -993 -991 -1138 -1133 -1175 -1144 -86
-25 -63 -44 -845 738 -765 767 -738 737 -723 821 6 33 141 172 1148 1180 628
629 1156 1150 1172 1158 22 10 53 13 115 9 47 -3 301 -17 565 -30z m1195 -132
c152 -35 320 -148 383 -256 94 -160 66 -341 -75 -481 -96 -95 -249 -165 -397
-182 l-61 -7 0 32 c0 49 -29 579 -35 651 -8 81 -31 172 -56 221 -14 28 -16 39
-6 43 20 9 177 -4 247 -21z m-968 -340 c-9 -51 -9 -179 1 -225 10 -47 -1 -48
-46 -5 -68 64 -69 167 -2 234 44 44 55 42 47 -4z m228 -73 c12 -45 6 -81 -22
-127 -25 -42 -35 -41 -47 5 -14 49 -14 112 1 169 l11 46 23 -27 c13 -14 28
-44 34 -66z"/>
<path d="M2371 3718 c-25 -4 -86 -33 -140 -65 l-96 -58 -140 -6 c-77 -3 -152
-10 -167 -17 -40 -17 -107 -81 -127 -121 -10 -20 -30 -73 -45 -118 -29 -88
-41 -103 -156 -195 -78 -63 -111 -121 -117 -205 -4 -52 0 -80 15 -119 l19 -52
-271 -98 c-276 -100 -316 -122 -316 -166 0 -38 24 -63 140 -144 61 -42 110
-79 110 -82 0 -2 -16 -65 -36 -139 -31 -117 -34 -139 -23 -164 13 -32 36 -49
67 -49 11 0 144 45 296 101 l277 100 33 -20 c20 -13 46 -44 64 -79 l31 -59
-85 -213 c-91 -226 -96 -254 -51 -285 29 -20 50 -19 175 10 59 14 117 27 128
30 18 4 33 -13 94 -104 39 -60 80 -117 91 -127 28 -25 76 -22 103 7 13 13 63
126 112 252 70 177 92 226 104 221 33 -13 117 -16 156 -5 63 17 117 59 184
144 68 84 91 100 215 141 93 30 143 68 182 134 26 43 28 57 33 192 l6 145 57
94 c62 103 72 135 65 214 -6 71 -28 113 -105 199 -76 86 -79 93 -97 212 -30
198 -92 261 -286 292 -58 9 -116 22 -130 29 -14 7 -56 41 -95 75 -102 91 -174
117 -274 98z m184 -232 c99 -87 135 -103 262 -123 150 -23 160 -33 183 -180
10 -61 25 -127 35 -146 9 -19 50 -74 91 -122 94 -110 95 -122 19 -256 -31 -53
-60 -112 -65 -130 -6 -19 -10 -86 -10 -151 0 -110 -1 -118 -25 -147 -18 -21
-49 -37 -108 -57 -133 -43 -171 -68 -245 -162 -66 -82 -102 -112 -140 -112
-10 0 -66 18 -125 40 -121 46 -158 48 -291 21 -140 -30 -150 -24 -239 140 -45
82 -89 122 -201 183 -120 65 -125 79 -95 229 25 129 23 160 -25 284 -51 132
-50 146 26 213 137 122 163 152 186 220 49 139 56 155 78 177 21 21 31 23 142
23 141 0 180 10 286 75 132 80 149 79 261 -19z m-1105 -898 c0 -7 -7 -50 -16
-96 -20 -97 -10 -163 32 -225 l25 -37 -23 -9 c-136 -51 -251 -91 -254 -89 -1
2 7 42 18 89 12 49 18 96 15 111 -5 18 -32 45 -84 82 -89 64 -104 48 122 131
168 60 165 60 165 43z m501 -784 c56 -20 136 -20 219 0 79 19 120 20 120 4 -1
-7 -27 -78 -59 -157 l-58 -144 -52 77 c-68 101 -78 105 -191 79 -50 -11 -90
-16 -90 -12 0 9 62 169 65 169 2 0 22 -7 46 -16z"/>
<path d="M2273 3310 c-216 -39 -402 -212 -458 -427 -19 -70 -21 -211 -4 -279
24 -101 77 -193 158 -273 118 -118 244 -171 406 -171 161 0 287 53 406 170
118 116 173 249 172 415 -1 185 -95 363 -250 469 -124 84 -289 121 -430 96z
m178 -160 c173 -32 314 -178 338 -350 25 -186 -67 -359 -236 -442 -64 -31 -74
-33 -178 -33 -104 0 -114 2 -176 32 -86 42 -159 115 -201 200 -32 65 -33 73
-33 183 0 107 2 119 29 175 38 77 129 168 200 201 90 41 165 51 257 34z"/>
</g>
</svg>
